REM DIRINDEX 1\2,1\3,1\4,1\5
REM DIRNAME cjc005,folder01,folder02,folder03,folder04
TITLE ""
FILE "P1Q_t_1110-1119.mp3" MP3
  TRACK 01 AUDIO
    TITLE "3:cjc005_4236"
    INDEX 01 00:00:00
  TRACK 02 AUDIO
    TITLE "0:"
    INDEX 01 00:00:74
  TRACK 03 AUDIO
    TITLE "4:cjc005_4237"
    INDEX 01 00:01:24
  TRACK 04 AUDIO
    TITLE "0:"
    INDEX 01 00:02:61
  TRACK 05 AUDIO
    TITLE "5:cjc005_4238"
    INDEX 01 00:03:08
  TRACK 06 AUDIO
    TITLE "0:"
    INDEX 01 00:07:49
  TRACK 07 AUDIO
    TITLE "3:cjc005_4239"
    INDEX 01 00:08:34
  TRACK 08 AUDIO
    TITLE "0:"
    INDEX 01 00:09:53
  TRACK 09 AUDIO
    TITLE "4:cjc005_4240"
    INDEX 01 00:10:02
  TRACK 10 AUDIO
    TITLE "0:"
    INDEX 01 00:11:21
  TRACK 11 AUDIO
    TITLE "5:cjc005_4241"
    INDEX 01 00:11:46
  TRACK 12 AUDIO
    TITLE "0:"
    INDEX 01 00:16:10
  TRACK 13 AUDIO
    TITLE "3:cjc005_4242"
    INDEX 01 00:16:65
  TRACK 14 AUDIO
    TITLE "0:"
    INDEX 01 00:18:13
  TRACK 15 AUDIO
    TITLE "4:cjc005_4243"
    INDEX 01 00:18:37
  TRACK 16 AUDIO
    TITLE "0:"
    INDEX 01 00:19:46
  TRACK 17 AUDIO
    TITLE "5:cjc005_4244"
    INDEX 01 00:19:73
  TRACK 18 AUDIO
    TITLE "0:"
    INDEX 01 00:24:43
  TRACK 19 AUDIO
    TITLE "3:cjc005_4245"
    INDEX 01 00:25:17
  TRACK 20 AUDIO
    TITLE "0:"
    INDEX 01 00:26:20
  TRACK 21 AUDIO
    TITLE "4:cjc005_4246"
    INDEX 01 00:26:44
  TRACK 22 AUDIO
    TITLE "0:"
    INDEX 01 00:27:67
  TRACK 23 AUDIO
    TITLE "5:cjc005_4247"
    INDEX 01 00:28:13
  TRACK 24 AUDIO
    TITLE "0:"
    INDEX 01 00:31:14
  TRACK 25 AUDIO
    TITLE "3:cjc005_4248"
    INDEX 01 00:31:71
  TRACK 26 AUDIO
    TITLE "0:"
    INDEX 01 00:33:21
  TRACK 27 AUDIO
    TITLE "4:cjc005_4249"
    INDEX 01 00:33:44
  TRACK 28 AUDIO
    TITLE "0:"
    INDEX 01 00:35:04
  TRACK 29 AUDIO
    TITLE "5:cjc005_4250"
    INDEX 01 00:35:31
  TRACK 30 AUDIO
    TITLE "0:"
    INDEX 01 00:39:39
  TRACK 31 AUDIO
    TITLE "3:cjc005_4251"
    INDEX 01 00:40:21
  TRACK 32 AUDIO
    TITLE "0:"
    INDEX 01 00:41:28
  TRACK 33 AUDIO
    TITLE "4:cjc005_4252"
    INDEX 01 00:41:57
  TRACK 34 AUDIO
    TITLE "0:"
    INDEX 01 00:43:21
  TRACK 35 AUDIO
    TITLE "5:cjc005_4253"
    INDEX 01 00:43:44
  TRACK 36 AUDIO
    TITLE "0:"
    INDEX 01 00:48:02
  TRACK 37 AUDIO
    TITLE "3:cjc005_4254"
    INDEX 01 00:48:53
  TRACK 38 AUDIO
    TITLE "0:"
    INDEX 01 00:50:07
  TRACK 39 AUDIO
    TITLE "4:cjc005_4255"
    INDEX 01 00:50:33
  TRACK 40 AUDIO
    TITLE "0:"
    INDEX 01 00:51:46
  TRACK 41 AUDIO
    TITLE "5:cjc005_4256"
    INDEX 01 00:51:71
  TRACK 42 AUDIO
    TITLE "0:"
    INDEX 01 00:55:50
  TRACK 43 AUDIO
    TITLE "3:cjc005_4257"
    INDEX 01 00:56:31
  TRACK 44 AUDIO
    TITLE "0:"
    INDEX 01 00:57:46
  TRACK 45 AUDIO
    TITLE "4:cjc005_4258"
    INDEX 01 00:57:72
  TRACK 46 AUDIO
    TITLE "0:"
    INDEX 01 00:59:06
  TRACK 47 AUDIO
    TITLE "5:cjc005_4259"
    INDEX 01 00:59:34
  TRACK 48 AUDIO
    TITLE "0:"
    INDEX 01 01:04:41
  TRACK 49 AUDIO
    TITLE "3:cjc005_4260"
    INDEX 01 01:05:21
  TRACK 50 AUDIO
    TITLE "0:"
    INDEX 01 01:06:43
  TRACK 51 AUDIO
    TITLE "4:cjc005_4261"
    INDEX 01 01:06:67
  TRACK 52 AUDIO
    TITLE "0:"
    INDEX 01 01:08:19
  TRACK 53 AUDIO
    TITLE "5:cjc005_4262"
    INDEX 01 01:08:46
  TRACK 54 AUDIO
    TITLE "0:"
    INDEX 01 01:11:72
  TRACK 55 AUDIO
    TITLE "3:cjc005_4263"
    INDEX 01 01:12:48
  TRACK 56 AUDIO
    TITLE "0:"
    INDEX 01 01:13:73
  TRACK 57 AUDIO
    TITLE "4:cjc005_4264"
    INDEX 01 01:14:23
  TRACK 58 AUDIO
    TITLE "0:"
    INDEX 01 01:15:48
  TRACK 59 AUDIO
    TITLE "5:cjc005_4265"
    INDEX 01 01:15:68
  TRACK 60 AUDIO
    TITLE "0:"
    INDEX 01 01:19:32
